# xmcd
#
# Track frame offsets:
#	150
#	3913
#	32069
#	39483
#	63847
#	84513
#	97494
#	128065
#	138374
#	161590
#	176996
#	187334
#	212117
#	230388
#	237985
#
# Disc length: 3497 seconds
#
# Revision: 1
# Processed by: cddbd v1.5.2PL0 Copyright (c) Steve Scherf et al.
# Submitted via: CDmax 2.0
#
DISCID=d20da70f
DTITLE=haunted by the blues - Some Of These Days
DYEAR=2001
DGENRE=Blues
TTITLE0=Book Of Blues
TTITLE1=The Chase
TTITLE2=Buty Free Gift
TTITLE3=Theme  For The Eulipions
TTITLE4=Sidewalk Blues
TTITLE5=8:45 Stomp
TTITLE6=Wims Tune
TTITLE7=Le Chambre Obsure
TTITLE8=Some Of These Days
TTITLE9=Breakfast Feud
TTITLE10=Mein Lied Ist Ein Breck
TTITLE11=Don't You Know
TTITLE12=XY
TTITLE13=Thinking About That Ham
TTITLE14=Dead Man Blues
EXTD=
EXTT0=
EXTT1=
EXTT2=
EXTT3=
EXTT4=
EXTT5=
EXTT6=
EXTT7=
EXTT8=
EXTT9=
EXTT10=
EXTT11=
EXTT12=
EXTT13=
EXTT14=
PLAYORDER=
